<svg width="24" height="24" viewBox="0 0 24 24" fill="none" xmlns="http://www.w3.org/2000/svg">
<path d="M9.32306 3.0177C6.96956 3.0177 5.05622 4.93104 5.05622 7.28454C5.05622 9.59312 6.86177 11.4616 9.21527 11.5424C9.28713 11.5334 9.35899 11.5334 9.41289 11.5424C9.43086 11.5424 9.43984 11.5424 9.45781 11.5424C9.46679 11.5424 9.46679 11.5424 9.47577 11.5424C11.7754 11.4616 13.5809 9.59312 13.5899 7.28454C13.5899 4.93104 11.6766 3.0177 9.32306 3.0177Z" fill="#0597FF"/>
<path d="M13.8872 13.9308C11.381 12.26 7.29379 12.26 4.76962 13.9308C3.6288 14.6944 3 15.7274 3 16.8323C3 17.9372 3.6288 18.9612 4.76063 19.7158C6.01823 20.5602 7.67107 20.9824 9.32391 20.9824C10.9767 20.9824 12.6296 20.5602 13.8872 19.7158C15.019 18.9522 15.6478 17.9282 15.6478 16.8143C15.6388 15.7094 15.019 14.6854 13.8872 13.9308Z" fill="#0597FF"/>
<path d="M19.1946 7.81286C19.3383 9.55553 18.0987 11.0826 16.383 11.2892C16.374 11.2892 16.374 11.2892 16.365 11.2892H16.3381C16.2842 11.2892 16.2303 11.2892 16.1854 11.3072C15.314 11.3521 14.5146 11.0736 13.9127 10.5616C14.838 9.73518 15.3679 8.49556 15.2601 7.14813C15.1973 6.42052 14.9457 5.7558 14.5685 5.18988C14.9098 5.0192 15.3051 4.91141 15.7093 4.87548C17.4699 4.72277 19.0419 6.03426 19.1946 7.81286Z" fill="#0597FF"/>
<path d="M20.9902 16.124C20.9183 16.9953 20.3614 17.7499 19.4272 18.2619C18.5289 18.756 17.3971 18.9895 16.2742 18.9626C16.921 18.3787 17.2983 17.6511 17.3701 16.8785C17.46 15.7647 16.93 14.6957 15.87 13.8424C15.2681 13.3663 14.5675 12.989 13.8039 12.7105C15.7892 12.1356 18.2864 12.5219 19.8224 13.7615C20.6489 14.4262 21.071 15.2616 20.9902 16.124Z" fill="#0597FF"/>
</svg>
