<svg width="24" height="24" viewBox="0 0 24 24" fill="none" xmlns="http://www.w3.org/2000/svg">
<path d="M9.32306 3.01758C6.96956 3.01758 5.05622 4.93092 5.05622 7.28442C5.05622 9.593 6.86177 11.4614 9.21527 11.5423C9.28713 11.5333 9.35899 11.5333 9.41289 11.5423C9.43086 11.5423 9.43984 11.5423 9.45781 11.5423C9.46679 11.5423 9.46679 11.5423 9.47577 11.5423C11.7754 11.4614 13.5809 9.593 13.5899 7.28442C13.5899 4.93092 11.6766 3.01758 9.32306 3.01758Z" fill="#082B60"/>
<path d="M13.8872 13.9307C11.381 12.2599 7.29379 12.2599 4.76962 13.9307C3.6288 14.6943 3 15.7273 3 16.8322C3 17.9371 3.6288 18.9611 4.76063 19.7157C6.01823 20.56 7.67107 20.9822 9.32391 20.9822C10.9767 20.9822 12.6296 20.56 13.8872 19.7157C15.019 18.9521 15.6478 17.9281 15.6478 16.8142C15.6388 15.7093 15.019 14.6853 13.8872 13.9307Z" fill="#082B60"/>
<path d="M19.1946 7.81274C19.3383 9.55541 18.0987 11.0825 16.383 11.2891C16.374 11.2891 16.374 11.2891 16.365 11.2891H16.3381C16.2842 11.2891 16.2303 11.2891 16.1854 11.3071C15.314 11.352 14.5146 11.0735 13.9127 10.5615C14.838 9.73506 15.3679 8.49543 15.2601 7.14801C15.1973 6.4204 14.9457 5.75567 14.5685 5.18976C14.9098 5.01908 15.3051 4.91129 15.7093 4.87536C17.4699 4.72265 19.0419 6.03414 19.1946 7.81274Z" fill="#082B60"/>
<path d="M20.9902 16.1239C20.9183 16.9952 20.3614 17.7498 19.4272 18.2618C18.5289 18.7558 17.3971 18.9894 16.2742 18.9624C16.921 18.3786 17.2983 17.6509 17.3701 16.8784C17.46 15.7646 16.93 14.6956 15.87 13.8422C15.2681 13.3661 14.5675 12.9889 13.8039 12.7104C15.7892 12.1355 18.2864 12.5218 19.8224 13.7614C20.6489 14.4261 21.071 15.2615 20.9902 16.1239Z" fill="#082B60"/>
</svg>
