<svg width="24" height="24" viewBox="0 0 24 24" fill="none" xmlns="http://www.w3.org/2000/svg">
<path d="M16.0911 4.81726C17.8539 4.81726 19.2713 6.24382 19.2713 7.99748C19.2713 9.71479 17.9084 11.1141 16.2092 11.1777C16.1366 11.1686 16.0548 11.1686 15.973 11.1777M17.8448 19.3554C18.499 19.2191 19.1169 18.9556 19.6257 18.5649C21.0432 17.5018 21.0432 15.7481 19.6257 14.685C19.1259 14.3034 18.5172 14.049 17.872 13.9036M9.50351 11.0596C9.41265 11.0505 9.30361 11.0505 9.20366 11.0596C7.04112 10.9869 5.3238 9.21504 5.3238 7.03433C5.3238 4.80818 7.12289 3 9.35813 3C11.5843 3 13.3925 4.80818 13.3925 7.03433C13.3834 9.21504 11.6661 10.9869 9.50351 11.0596ZM4.96032 14.4124C2.76143 15.8844 2.76143 18.2832 4.96032 19.7461C7.45906 21.418 11.557 21.418 14.0557 19.7461C16.2546 18.2741 16.2546 15.8753 14.0557 14.4124C11.5661 12.7496 7.46815 12.7496 4.96032 14.4124Z" stroke="#89909D" stroke-linecap="round" stroke-linejoin="round"/>
</svg>
