<svg xmlns="http://www.w3.org/2000/svg" xmlns:xlink="http://www.w3.org/1999/xlink" viewBox="0,0,256,256" width="104px" height="104px" fill-rule="nonzero"><g fill="#a6adb9" fill-rule="nonzero" stroke="none" stroke-width="1" stroke-linecap="butt" stroke-linejoin="miter" stroke-miterlimit="10" stroke-dasharray="" stroke-dashoffset="0" font-family="none" font-weight="none" font-size="none" text-anchor="none" style="mix-blend-mode: normal"><g transform="scale(9.84615,9.84615)"><path d="M13,0.15625c-7.09766,0 -12.84375,5.74609 -12.84375,12.84375c0,7.09766 5.74609,12.84375 12.84375,12.84375c7.09766,0 12.84375,-5.74609 12.84375,-12.84375c0,-7.09766 -5.74609,-12.84375 -12.84375,-12.84375zM11.96875,3c0.03906,-0.00391 0.08594,0.00391 0.125,0v0.5c0,0.5 0.40625,0.90625 0.90625,0.90625c0.5,0 0.90625,-0.40625 0.90625,-0.90625v-0.5c4.82031,0.42969 8.66406,4.27344 9.09375,9.09375h-0.5c-0.03125,0 -0.0625,0 -0.09375,0c-0.5,0.02734 -0.88672,0.45313 -0.85937,0.95313c0.02734,0.5 0.45313,0.88672 0.95313,0.85938h0.5c-0.42969,4.82031 -4.27344,8.66406 -9.09375,9.09375v-0.5c0.00391,-0.25781 -0.10156,-0.50781 -0.29297,-0.67969c-0.19141,-0.17578 -0.44922,-0.25781 -0.70703,-0.22656c-0.46484,0.04297 -0.82031,0.4375 -0.8125,0.90625v0.5c-4.82031,-0.42969 -8.66406,-4.27344 -9.09375,-9.09375h0.5c0.5,0 0.90625,-0.40625 0.90625,-0.90625c0,-0.5 -0.40625,-0.90625 -0.90625,-0.90625h-0.5c0.42969,-4.78125 4.20313,-8.60937 8.96875,-9.09375zM13,5.4375c-0.49219,0 -0.70312,0.4375 -0.71875,0.6875l-0.28125,5.28125c-0.53516,0.33594 -0.90625,0.91406 -0.90625,1.59375c0,1.04688 0.85938,1.90625 1.90625,1.90625c0.05469,0 0.10156,-0.02734 0.15625,-0.03125l4.25,3.8125c0.19531,0.17188 0.70313,0.32813 1.15625,-0.125c0.45703,-0.45312 0.32422,-0.99219 0.15625,-1.1875l-3.8125,-4.34375c0,-0.01172 0,-0.01953 0,-0.03125c0,-0.70312 -0.39844,-1.29687 -0.96875,-1.625l-0.21875,-5.25c-0.01172,-0.25 -0.23047,-0.6875 -0.71875,-0.6875z"></path></g></g></svg>