<svg width="512" height="439" viewBox="0 0 512 439" fill="none" xmlns="http://www.w3.org/2000/svg">
<path d="M492.8 146.432C433.664 53.504 347.136 0 256 0C210.432 0 166.144 13.312 125.696 38.144C85.248 63.232 48.896 99.84 19.2 146.432C-6.4 186.624 -6.4 251.904 19.2 292.096C78.336 385.28 164.864 438.528 256 438.528C301.568 438.528 345.856 425.216 386.304 400.384C426.752 375.296 463.104 338.688 492.8 292.096C518.4 252.16 518.4 186.624 492.8 146.432ZM256 322.816C198.656 322.816 152.576 276.48 152.576 219.392C152.576 162.304 198.656 115.968 256 115.968C313.344 115.968 359.424 162.304 359.424 219.392C359.424 276.48 313.344 322.816 256 322.816Z" fill="#A6ADB9"/>
<path d="M255.96 146.2C215.768 146.2 183 178.968 183 219.416C183 259.608 215.768 292.376 255.96 292.376C296.152 292.376 329.176 259.608 329.176 219.416C329.176 179.224 296.152 146.2 255.96 146.2Z" fill="#A6ADB9"/>
</svg>
