<svg width="18" height="18" viewBox="0 0 18 18" fill="none" xmlns="http://www.w3.org/2000/svg">
<path d="M17.3361 6.45396C17.0752 6.04015 16.7964 5.65333 16.5085 5.2935C16.1757 4.8707 15.546 4.83472 15.1681 5.21254L12.4694 7.91127C12.6673 8.50499 12.7033 9.18867 12.5234 9.89933C12.2085 11.1677 11.183 12.1933 9.91461 12.5081C9.20394 12.688 8.52026 12.652 7.92654 12.4541C7.92654 12.4541 6.64015 13.7405 5.71358 14.6671C5.2638 15.1169 5.40773 15.9085 6.01045 16.1424C6.97299 16.5112 7.97152 16.7001 8.99704 16.7001C10.5983 16.7001 12.1546 16.2324 13.5759 15.3598C15.0242 14.4602 16.3286 13.1378 17.3811 11.4556C18.2357 10.0972 18.1907 7.81232 17.3361 6.45396Z" fill="#A6ADB9"/>
<path d="M10.8135 7.17567L7.17919 10.81C6.7204 10.3422 6.42354 9.69449 6.42354 8.99282C6.42354 7.58048 7.575 6.42003 8.99633 6.42003C9.698 6.42003 10.3457 6.71689 10.8135 7.17567Z" fill="#A6ADB9"/>
<path d="M14.6181 3.36962L11.5686 6.41918C10.9119 5.7535 10.0033 5.35768 8.99577 5.35768C6.98072 5.35768 5.36148 6.98592 5.36148 8.99197C5.36148 9.9995 5.76629 10.9081 6.42298 11.5648L3.38241 14.6143H3.37341C2.37488 13.8047 1.45731 12.7702 0.674683 11.5468C-0.224894 10.1344 -0.224894 7.84051 0.674683 6.42818C1.71819 4.79095 2.99559 3.50455 4.41692 2.62297C5.83825 1.75938 7.39452 1.2826 8.99577 1.2826C11.0018 1.2826 12.9449 2.02025 14.6181 3.36962Z" fill="#A6ADB9"/>
<path d="M11.5669 8.99057C11.5669 10.4029 10.4154 11.5634 8.99408 11.5634C8.94011 11.5634 8.89513 11.5634 8.84115 11.5454L11.5489 8.83764C11.5669 8.89161 11.5669 8.93659 11.5669 8.99057Z" fill="#A6ADB9"/>
<path d="M17.7837 0.202405C17.5138 -0.0674683 17.073 -0.0674683 16.8031 0.202405L0.205919 16.8086C-0.0639543 17.0785 -0.0639543 17.5193 0.205919 17.7891C0.340855 17.9151 0.511775 17.987 0.69169 17.987C0.871606 17.987 1.04253 17.9151 1.17746 17.7801L17.7837 1.17395C18.0625 0.904075 18.0625 0.472278 17.7837 0.202405Z" fill="#A6ADB9"/>
</svg>
