<svg width="24" height="24" viewBox="0 0 24 24" fill="none" xmlns="http://www.w3.org/2000/svg">
<path d="M11.9956 14.6987C13.4861 14.6987 14.6943 13.4905 14.6943 12.0001C14.6943 10.5096 13.4861 9.30142 11.9956 9.30142C10.5052 9.30142 9.297 10.5096 9.297 12.0001C9.297 13.4905 10.5052 14.6987 11.9956 14.6987Z" stroke="#89909D" stroke-miterlimit="10" stroke-linecap="round" stroke-linejoin="round"/>
<path d="M3 12.7916V11.2084C3 10.2729 3.76462 9.49926 4.70915 9.49926C6.33733 9.49926 7.003 8.34784 6.18441 6.93554C5.71664 6.12595 5.9955 5.07348 6.81409 4.60571L8.37031 3.71516C9.08096 3.29237 9.9985 3.54424 10.4213 4.25489L10.5202 4.4258C11.3298 5.83809 12.6612 5.83809 13.4798 4.4258L13.5787 4.25489C14.0015 3.54424 14.919 3.29237 15.6297 3.71516L17.1859 4.60571C18.0045 5.07348 18.2834 6.12595 17.8156 6.93554C16.997 8.34784 17.6627 9.49926 19.2909 9.49926C20.2264 9.49926 21 10.2639 21 11.2084V12.7916C21 13.7271 20.2354 14.5008 19.2909 14.5008C17.6627 14.5008 16.997 15.6522 17.8156 17.0645C18.2834 17.8831 18.0045 18.9265 17.1859 19.3943L15.6297 20.2849C14.919 20.7077 14.0015 20.4558 13.5787 19.7451L13.4798 19.5742C12.6702 18.1619 11.3388 18.1619 10.5202 19.5742L10.4213 19.7451C9.9985 20.4558 9.08096 20.7077 8.37031 20.2849L6.81409 19.3943C5.9955 18.9265 5.71664 17.8741 6.18441 17.0645C7.003 15.6522 6.33733 14.5008 4.70915 14.5008C3.76462 14.5008 3 13.7271 3 12.7916Z" stroke="#89909D" stroke-miterlimit="10" stroke-linecap="round" stroke-linejoin="round"/>
</svg>
