<svg width="24" height="24" viewBox="0 0 24 24" fill="none" xmlns="http://www.w3.org/2000/svg">
<path d="M9.31836 3.75233C10.5334 2.80752 12.5584 2.76199 13.8184 3.64394L19.3799 7.5414C20.2708 8.1623 20.9998 9.55696 21 10.6459V17.1986C20.9999 19.2775 19.2989 20.9877 17.2109 20.9877H6.78906C4.70122 20.9877 3.00025 19.2776 3 17.1898V10.5199C3.0002 9.50307 3.65703 8.16259 4.4668 7.53261L9.31836 3.75233ZM12 14.1869C11.724 14.1869 11.5002 14.411 11.5 14.6869V17.3871C11.5001 17.6632 11.7239 17.8871 12 17.8871C12.2761 17.8871 12.4999 17.6632 12.5 17.3871V14.6869C12.4998 14.411 12.276 14.1869 12 14.1869Z" fill="#082B60"/>
</svg>
