<svg width="24" height="24" viewBox="0 0 24 24" fill="none" xmlns="http://www.w3.org/2000/svg">
<path d="M11.5391 2.51342C12.4407 2.49227 13.3718 2.7223 14.1045 3.2351L19.666 7.13158L19.8604 7.27904C20.3057 7.64429 20.6879 8.15107 20.9678 8.68725C21.2876 9.29998 21.5 10.0013 21.5 10.6472V17.199C21.4999 19.5532 19.5758 21.488 17.2109 21.488H6.78906C4.42353 21.488 2.50025 19.5526 2.5 17.1902V10.5212C2.5 9.91594 2.69194 9.25009 2.98047 8.66185C3.26923 8.07332 3.67938 7.51239 4.16016 7.13842L9.01074 3.35814L9.14648 3.25853C9.83349 2.77527 10.6938 2.53329 11.5391 2.51342ZM12 14.1872C11.724 14.1872 11.5002 14.4113 11.5 14.6872V17.3874C11.5001 17.6635 11.7239 17.8874 12 17.8874C12.2761 17.8874 12.4999 17.6635 12.5 17.3874V14.6872C12.4998 14.4113 12.276 14.1872 12 14.1872Z" fill="#0597FF"/>
</svg>
